<?xml version="1.0" encoding="utf-8"?>
<!-- Generator: Adobe Illustrator 16.0.0, SVG Export Plug-In . SVG Version: 6.00 Build 0)  -->
<!DOCTYPE svg PUBLIC "-//W3C//DTD SVG 1.1//EN" "http://www.w3.org/Graphics/SVG/1.1/DTD/svg11.dtd">
<svg version="1.1" xmlns="http://www.w3.org/2000/svg" xmlns:xlink="http://www.w3.org/1999/xlink" x="0px" y="0px"
	 width="680.666px" height="416.001px" viewBox="0 0 680.666 416.001" enable-background="new 0 0 680.666 416.001"
	 xml:space="preserve">
<g id="Layer_1">
	<linearGradient id="SVGID_1_" gradientUnits="userSpaceOnUse" x1="53.0039" y1="192.7695" x2="677.9526" y2="192.7695">
		<stop  offset="0" style="stop-color:#000000"/>
		<stop  offset="0.0653" style="stop-color:#000509"/>
		<stop  offset="0.174" style="stop-color:#001223"/>
		<stop  offset="0.3125" style="stop-color:#00274C"/>
		<stop  offset="0.4741" style="stop-color:#004485"/>
		<stop  offset="0.5128" style="stop-color:#004C94"/>
		<stop  offset="0.6976" style="stop-color:#004B92"/>
		<stop  offset="0.7641" style="stop-color:#00488B"/>
		<stop  offset="0.8116" style="stop-color:#004180"/>
		<stop  offset="0.85" style="stop-color:#00396F"/>
		<stop  offset="0.8828" style="stop-color:#002D59"/>
		<stop  offset="0.9119" style="stop-color:#00203D"/>
		<stop  offset="0.9376" style="stop-color:#000F1E"/>
		<stop  offset="0.9573" style="stop-color:#000000"/>
		<stop  offset="0.9944" style="stop-color:#000000"/>
	</linearGradient>
	<path fill="url(#SVGID_1_)" d="M97.499,244.478C4.499,17.689,54.728,80.785,272.353,24.447
		c264.558-68.488,106.962,53.956,262.658,62.265c178.287,9.514,159.493,44.956,105.063,157.718
		C561.067,408.11,168.999,446.129,97.499,244.478"/>
	<rect x="192.874" y="130.387" fill="#FFFFFF" width="2" height="0.469"/>
</g>
<g id="Layer_2">
	<path fill="#633818" d="M627.999,253.813c0,4.031-0.118,8.188-1.324,8.188H14.184c-1.207,0-2.186-4.157-2.186-8.188v-1.622
		c0-4.029,0.979-7.189,2.186-7.189h612.49c1.206,0,1.324,3.16,1.324,7.189V253.813z"/>
	<path fill="#A8662F" d="M637.999,247.751c0,1.242-1.008,2.25-2.25,2.25H5.249c-1.243,0-2.25-1.008-2.25-2.25v-0.5
		c0-1.242,1.007-2.25,2.25-2.25h630.5c1.242,0,2.25,1.008,2.25,2.25V247.751z"/>
	<path fill="#050505" d="M481.999,244.501c0,0.874-1.119,1.5-2.5,1.5h-131c-1.381,0-2.5-0.626-2.5-1.5l0,0
		c0-0.874,1.119-1.5,2.5-1.5h131C480.879,243.001,481.999,243.627,481.999,244.501L481.999,244.501z"/>
</g>
<g id="cup">
	<path fill="#6B411C" d="M489.441,218.995c0,1.032-2.284,2.006-4.403,2.006h-20.203c-2.118,0-3.855-0.974-3.855-2.006l0,0
		c1.266-0.214,2.724-0.218,4.551-0.432l8.422-0.516l11.047,0.359C487.118,218.407,487.749,218.642,489.441,218.995L489.441,218.995z
		"/>
	<g id="Layer_3">
		<rect x="167.999" y="236.001" fill="#FFFFFF" width="58" height="10"/>
		<rect x="109.499" y="191.501" fill="#050505" stroke="#000000" stroke-miterlimit="10" width="36" height="48"/>
		<ellipse cx="411.03" cy="232.048" rx="1.469" ry="4.453"/>
		<path fill="#3D3D3D" d="M424.116,243.091l-23.95,0.077c0,0,2.02-5.573,2.028-7.567c0.005-1.35-1.153-3.45-1.153-3.45l8.721-2.149
			h2.185l10.063,1.474c0,0-1.552,2.584-1.092,4.13C421.588,237.861,424.116,243.091,424.116,243.091z"/>
		<rect x="45.499" y="125.501" fill="#050505" stroke="#000000" stroke-miterlimit="10" width="164" height="106"/>
		<path fill="#050505" stroke="#000000" stroke-miterlimit="10" d="M159.499,239.501c0,2.762-2.924,5-6.532,5h-50.955
			c-3.607,0-6.532-2.238-6.532-5l0,0c0-2.762,2.925-5,6.532-5h50.955C156.575,234.501,159.499,236.739,159.499,239.501
			L159.499,239.501z"/>
		<rect x="292.499" y="192.501" fill="#050505" stroke="#000000" stroke-miterlimit="10" width="36" height="48"/>
		<rect x="228.499" y="126.501" fill="#050505" stroke="#000000" stroke-miterlimit="10" width="164" height="106"/>
		<path fill="#050505" stroke="#000000" stroke-miterlimit="10" d="M342.499,240.501c0,2.762-2.924,5-6.532,5h-50.955
			c-3.607,0-6.532-2.238-6.532-5l0,0c0-2.762,2.925-5,6.532-5h50.955C339.575,235.501,342.499,237.739,342.499,240.501
			L342.499,240.501z"/>
		<rect x="50.499" y="129.501" fill="#444444" stroke="#000000" stroke-miterlimit="10" width="153" height="98"/>
		<path fill="#FFFFFF" stroke="#000000" stroke-miterlimit="10" d="M128.249,159.501c0,0.552-0.419,1-0.936,1H96.434
			c-0.517,0-0.936-0.448-0.936-1l0,0c0-0.552,0.419-1,0.936-1h30.879C127.83,158.501,128.249,158.949,128.249,159.501
			L128.249,159.501z"/>
		<path fill="#FFFFFF" stroke="#000000" stroke-miterlimit="10" d="M147.999,164.501c0,0.552-0.672,1-1.5,1h-49.5
			c-0.828,0-1.5-0.448-1.5-1l0,0c0-0.552,0.672-1,1.5-1h49.5C147.327,163.501,147.999,163.949,147.999,164.501L147.999,164.501z"/>
		<path fill="#FFFFFF" stroke="#000000" stroke-miterlimit="10" d="M130.499,169.501c0,0.552-0.448,1-1,1h-33c-0.552,0-1-0.448-1-1
			l0,0c0-0.552,0.448-1,1-1h33C130.051,168.501,130.499,168.949,130.499,169.501L130.499,169.501z"/>
		<path fill="#FFFFFF" stroke="#000000" stroke-miterlimit="10" d="M150.749,174.501c0,0.513-0.707,1-1.579,1H97.077
			c-0.872,0-1.579-0.487-1.579-1l0,0c0-0.513,0.707-1,1.579-1h52.093C150.042,173.501,150.749,173.988,150.749,174.501
			L150.749,174.501z"/>
		<path fill="#FFFFFF" stroke="#000000" stroke-miterlimit="10" d="M162.499,169.501c0,0.552-0.326,1-0.729,1h-24.043
			c-0.402,0-0.729-0.448-0.729-1l0,0c0-0.552,0.326-1,0.729-1h24.043C162.172,168.501,162.499,168.949,162.499,169.501
			L162.499,169.501z"/>
		<path fill="#FFFFFF" stroke="#000000" stroke-miterlimit="10" d="M169.499,159.501c0,0.552-0.448,1-1,1h-33c-0.552,0-1-0.448-1-1
			l0,0c0-0.552,0.448-1,1-1h33C169.051,158.501,169.499,158.949,169.499,159.501L169.499,159.501z"/>
		<path fill="#FFFFFF" stroke="#000000" stroke-miterlimit="10" d="M171.999,174.501c0,0.552-0.224,1-0.5,1h-16.5
			c-0.277,0-0.5-0.448-0.5-1l0,0c0-0.552,0.224-1,0.5-1h16.5C171.775,173.501,171.999,173.949,171.999,174.501L171.999,174.501z"/>
		<rect x="50.999" y="219.001" fill="#282828" width="152" height="8"/>
		<g>
			<path fill="#00A4FF" d="M54.695,222.764h-1.505c-0.102,0-0.186,0.085-0.186,0.189v1.233c0,0.092,0.063,0.165,0.148,0.183
				l1.459,0.293l0.096,0.016c0.097-0.004,0.176-0.088,0.176-0.187v-1.538C54.883,222.847,54.797,222.764,54.695,222.764
				L54.695,222.764z"/>
			<path fill="#00A4FF" d="M57.69,222.764h-2.33c-0.102,0-0.186,0.085-0.186,0.189v1.669v0.004c0,0.076,0.046,0.14,0.11,0.169
				c0.002,0.002,0.002,0.002,0.002,0.002l0.073,0.016c0.003,0,0.003,0,0.004,0l2.281,0.456c0.003,0.001,0.007,0.004,0.01,0.004
				c0.001,0,0.003,0,0.004-0.002c0.01,0.006,0.019,0.006,0.029,0.006c0.103,0,0.188-0.083,0.188-0.188v-2.136
				C57.879,222.847,57.793,222.764,57.69,222.764L57.69,222.764z"/>
			<path fill="#00A4FF" d="M57.69,219.956c-0.01,0-0.02,0-0.029,0.007c-0.001-0.002-0.003-0.002-0.004-0.002
				c-0.003,0-0.007,0.002-0.01,0.004l-2.282,0.455c-0.003,0-0.003,0-0.004,0l-0.07,0.015c0,0-0.003,0-0.005,0.003
				c-0.064,0.029-0.11,0.096-0.11,0.172v1.669c0,0.104,0.083,0.189,0.186,0.189h2.33c0.103,0,0.188-0.085,0.188-0.189v-2.135
				C57.879,220.042,57.793,219.956,57.69,219.956L57.69,219.956z"/>
			<path fill="#00A4FF" d="M54.708,220.553l-0.096,0.017l-1.459,0.294c-0.085,0.018-0.148,0.091-0.148,0.183v1.232
				c0,0.104,0.083,0.189,0.186,0.189h1.507c0.103,0,0.188-0.085,0.188-0.189v-1.539C54.883,220.641,54.806,220.558,54.708,220.553
				L54.708,220.553z"/>
		</g>
		<ellipse fill="#FFFFFF" cx="86.332" cy="173.001" rx="0.667" ry="39.833"/>
		<path fill="#C4C2C2" d="M82.999,143.001c0,1.657-1.343,3-3,3h-23c-1.657,0-3-1.343-3-3l0,0c0-1.657,1.343-3,3-3h23
			C81.655,140.001,82.999,141.344,82.999,143.001L82.999,143.001z"/>
		<path fill="#C4C2C2" d="M82.999,153.001c0,1.657-1.343,3-3,3h-23c-1.657,0-3-1.343-3-3l0,0c0-1.657,1.343-3,3-3h23
			C81.655,150.001,82.999,151.344,82.999,153.001L82.999,153.001z"/>
		<path fill="#C4C2C2" d="M82.999,163.001c0,1.657-1.343,3-3,3h-23c-1.657,0-3-1.343-3-3l0,0c0-1.657,1.343-3,3-3h23
			C81.655,160.001,82.999,161.344,82.999,163.001L82.999,163.001z"/>
		<path fill="#C4C2C2" d="M82.999,174.001c0,1.657-1.343,3-3,3h-23c-1.657,0-3-1.343-3-3l0,0c0-1.657,1.343-3,3-3h23
			C81.655,171.001,82.999,172.344,82.999,174.001L82.999,174.001z"/>
		<path fill="#C4C2C2" d="M82.999,184.001c0,1.657-1.343,3-3,3h-23c-1.657,0-3-1.343-3-3l0,0c0-1.657,1.343-3,3-3h23
			C81.655,181.001,82.999,182.344,82.999,184.001L82.999,184.001z"/>
		<path fill="#C4C2C2" d="M82.999,195.001c0,1.657-1.343,3-3,3h-23c-1.657,0-3-1.343-3-3l0,0c0-1.657,1.343-3,3-3h23
			C81.655,192.001,82.999,193.344,82.999,195.001L82.999,195.001z"/>
		<rect x="190.999" y="130.001" fill="#3D3D3D" width="12" height="4"/>
		
			<rect x="200.834" y="130.501" transform="matrix(0.7071 0.7071 -0.7071 0.7071 151.8563 -103.6115)" fill="#FFFFFF" width="0.328" height="2"/>
		
			<rect x="200.835" y="130.501" transform="matrix(-0.7071 0.7071 -0.7071 -0.7071 436.1116 82.3586)" fill="#FFFFFF" width="0.328" height="2"/>
		<ellipse fill="#191919" cx="199.332" cy="131.47" rx="0.088" ry="1.792"/>
		<ellipse fill="#191919" cx="195.332" cy="131.47" rx="0.088" ry="1.792"/>
		<ellipse fill="#191919" cx="191.332" cy="131.47" rx="0.088" ry="1.792"/>
		
			<rect x="195.895" y="130.855" fill="#3D3D3D" stroke="#FFFFFF" stroke-width="0.2" stroke-miterlimit="10" width="1.667" height="1.229"/>
		
			<rect x="196.666" y="130.387" fill="#3D3D3D" stroke="#FFFFFF" stroke-width="0.2" stroke-miterlimit="10" width="1.666" height="1.229"/>
		<rect x="192.298" y="131.401" fill="#FFFFFF" width="2" height="0.2"/>
		<rect x="50.999" y="130.001" fill="#3D3D3D" width="140" height="4"/>
		<path fill="#FFFFFF" stroke="#000000" stroke-miterlimit="10" d="M128.249,182.501c0,0.552-0.419,1-0.936,1H96.434
			c-0.517,0-0.936-0.448-0.936-1l0,0c0-0.552,0.419-1,0.936-1h30.879C127.83,181.501,128.249,181.949,128.249,182.501
			L128.249,182.501z"/>
		<path fill="#FFFFFF" stroke="#000000" stroke-miterlimit="10" d="M147.999,187.501c0,0.552-0.672,1-1.5,1h-49.5
			c-0.828,0-1.5-0.448-1.5-1l0,0c0-0.552,0.672-1,1.5-1h49.5C147.327,186.501,147.999,186.949,147.999,187.501L147.999,187.501z"/>
		<path fill="#FFFFFF" stroke="#000000" stroke-miterlimit="10" d="M130.499,192.501c0,0.552-0.448,1-1,1h-33c-0.552,0-1-0.448-1-1
			l0,0c0-0.552,0.448-1,1-1h33C130.051,191.501,130.499,191.949,130.499,192.501L130.499,192.501z"/>
		<path fill="#FFFFFF" stroke="#000000" stroke-miterlimit="10" d="M150.749,197.501c0,0.513-0.707,1-1.579,1H97.077
			c-0.872,0-1.579-0.487-1.579-1l0,0c0-0.513,0.707-1,1.579-1h52.093C150.042,196.501,150.749,196.988,150.749,197.501
			L150.749,197.501z"/>
		<path fill="#FFFFFF" stroke="#000000" stroke-miterlimit="10" d="M162.499,192.501c0,0.552-0.326,1-0.729,1h-24.043
			c-0.402,0-0.729-0.448-0.729-1l0,0c0-0.552,0.326-1,0.729-1h24.043C162.172,191.501,162.499,191.949,162.499,192.501
			L162.499,192.501z"/>
		<path fill="#FFFFFF" stroke="#000000" stroke-miterlimit="10" d="M169.499,182.501c0,0.552-0.448,1-1,1h-33c-0.552,0-1-0.448-1-1
			l0,0c0-0.552,0.448-1,1-1h33C169.051,181.501,169.499,181.949,169.499,182.501L169.499,182.501z"/>
		<path fill="#FFFFFF" stroke="#000000" stroke-miterlimit="10" d="M171.999,197.501c0,0.552-0.224,1-0.5,1h-16.5
			c-0.277,0-0.5-0.448-0.5-1l0,0c0-0.552,0.224-1,0.5-1h16.5C171.775,196.501,171.999,196.949,171.999,197.501L171.999,197.501z"/>
		<path fill="#C4C2C2" d="M109.999,146.584c0,0.782-0.634,1.417-1.417,1.417H96.416c-0.783,0-1.417-0.634-1.417-1.417v-0.167
			c0-0.782,0.634-1.417,1.417-1.417h12.166c0.783,0,1.417,0.634,1.417,1.417V146.584z"/>
		<rect x="94.999" y="149.001" fill="#FFFFFF" width="102" height="1"/>
		<path fill="#C4C2C2" d="M127.999,146.084c0,0.782-0.479,1.917-1.379,1.917h-13.991c-0.9,0-1.629-1.134-1.629-1.917v-0.167
			c0-0.782,0.729-0.917,1.629-0.917h13.991c0.9,0,1.379,0.134,1.379,0.917V146.084z"/>
		<rect x="234.999" y="220.001" fill="#282828" width="152" height="8"/>
		<g>
			<path fill="#00A4FF" d="M238.695,223.764h-1.505c-0.102,0-0.186,0.085-0.186,0.189v1.233c0,0.092,0.063,0.165,0.148,0.183
				l1.459,0.293l0.096,0.016c0.097-0.004,0.176-0.088,0.176-0.187v-1.538C238.883,223.847,238.797,223.764,238.695,223.764
				L238.695,223.764z"/>
			<path fill="#00A4FF" d="M241.69,223.764h-2.33c-0.102,0-0.186,0.085-0.186,0.189v1.669v0.004c0,0.076,0.046,0.14,0.11,0.169
				c0.002,0.002,0.002,0.002,0.002,0.002l0.073,0.016c0.003,0,0.003,0,0.004,0l2.281,0.456c0.003,0.001,0.007,0.004,0.01,0.004
				c0.001,0,0.003,0,0.004-0.002c0.01,0.006,0.019,0.006,0.029,0.006c0.103,0,0.188-0.083,0.188-0.188v-2.136
				C241.879,223.847,241.793,223.764,241.69,223.764L241.69,223.764z"/>
			<path fill="#00A4FF" d="M241.69,220.956c-0.01,0-0.02,0-0.029,0.007c-0.001-0.002-0.003-0.002-0.004-0.002
				c-0.003,0-0.007,0.002-0.01,0.004l-2.282,0.455c-0.003,0-0.003,0-0.004,0l-0.07,0.015c0,0-0.003,0-0.005,0.003
				c-0.064,0.029-0.11,0.096-0.11,0.172v1.669c0,0.104,0.083,0.189,0.186,0.189h2.33c0.103,0,0.188-0.085,0.188-0.189v-2.135
				C241.879,221.042,241.793,220.956,241.69,220.956L241.69,220.956z"/>
			<path fill="#00A4FF" d="M238.708,221.553l-0.096,0.017l-1.459,0.294c-0.085,0.018-0.148,0.091-0.148,0.183v1.232
				c0,0.104,0.083,0.189,0.186,0.189h1.507c0.103,0,0.188-0.085,0.188-0.189v-1.539
				C238.883,221.641,238.806,221.558,238.708,221.553L238.708,221.553z"/>
		</g>
	</g>
	<path fill="#A32434" d="M489.441,218.995c0,0-6.952-2.035-9.239-2.311c-2.415-0.291-7.25-0.205-9.664,0.118
		c-2.42,0.326-9.559,2.192-9.559,2.192s7.822-0.651,10.436-0.709c2.167-0.047,6.502,0.108,8.668,0.209
		C482.422,218.604,489.441,218.995,489.441,218.995z"/>
	<path fill="#AAAAAA" d="M468.148,218.911c-1.25-1.179-3.947-4.056-3.744-5.762c0.124-1.036,1.877-2.609,2.801-3.093
		c1.432-0.749,4.671-1.49,6.286-1.493c1.284-0.004,5.001,1.164,5.001,1.164s3.92,0.318,4.997-0.32
		c0.705-0.418,1.364-2.154,1.383-2.974c0.016-0.725-0.847-2.059-1.38-2.55c-1.112-1.025-4.168-1.831-5.628-2.23
		c-0.984-0.27-4.035-0.637-4.035-0.637l-8.177-1.062c0,0-3.7-0.361-4.758-0.956c-0.573-0.323-1.447-1.574-1.401-2.23
		c0.068-0.987,1.729-2.474,2.549-3.027c0.557-0.375,1.786-0.972,2.442-1.115c1.245-0.271,3.824-0.044,5.098,0
		c1.804,0.063,7.222,0,7.222,0s3.204,0.195,4.247,0c1.103-0.206,2.974-2.283,2.974-2.283s-0.981,2.762-1.114,2.974
		c-0.842,1.338-2.829,1.569-4.407,1.646c-2.388,0.116-7.241-0.27-9.559,0.318c-0.806,0.205-3.126,0.67-2.974,1.487
		c0.178,0.953,2.855,0.583,3.823,0.637c1.217,0.067,4.779,0.956,4.779,0.956l2.124,0.637l2.974,0.531l2.018,0.106l2.124,0.531
		c0,0,1.188,0.424,1.593,0.531c0.812,0.212,2.455,0.598,3.293,0.637c0.478,0.023,1.445-0.109,1.911,0
		c0.367,0.087,0.85,0.425,1.168,0.956c0.318,0.531,0.638,2.23,0.638,2.23s0.105,1.594,0,2.336c-0.106,0.744-0.85,1.807-0.85,1.807
		l-1.486,1.592c0,0-0.063,0.094-0.744,0.638c-0.817,0.653-4.035,1.7-4.035,1.7s-0.425,0.105-0.956,0.317
		c-0.531,0.213-4.46,0.956-4.991,0.956s-2.443-0.318-2.762-0.318s-2.792-0.691-3.717-0.53c-0.328,0.057-0.95,0.386-1.169,0.637
		c-0.182,0.209-0.317,0.637-0.317,1.062s0.637,1.168,0.742,1.806c0.107,0.638,0.107,0.638,0.107,0.638s0.742,1.592,0.425,1.752
		c-0.319,0.159-0.036,0.938-0.036,0.938s-1.558-0.673-1.663-0.035C470.855,220.45,468.685,219.418,468.148,218.911z"/>
	<path fill="#D12F3E" d="M489.441,219.025c0,0,0.179,9.644,0,12.851c-0.1,1.787-0.367,5.378-0.797,7.115
		c-0.353,1.43-2.044,5.523-2.044,5.523s-6.93,1.486-11.391,1.486c-2.864,0-11.363-1.486-11.363-1.486s-1.662-4.097-2.018-5.523
		c-0.434-1.738-0.743-5.326-0.85-7.115c-0.19-3.206,0-12.851,0-12.851s5.794,1.249,7.753,1.487
		c2.899,0.352,8.771,0.457,11.682,0.213C482.702,220.533,489.441,219.025,489.441,219.025z"/>
	<path fill="#C9C9C9" d="M509.979,220.025"/>
	<path fill="#C9C9C9" d="M538.441,220.025"/>
</g>
<g id="clock">
	<rect x="258.999" y="236.001" fill="#FFFFFF" width="8" height="10"/>
	<rect x="246.999" y="236.001" fill="#FFFFFF" width="8" height="10"/>
	<rect x="233.999" y="236.001" fill="#FFFFFF" width="8" height="10"/>
	<rect x="124.999" y="236.001" fill="#FFFFFF" width="8" height="10"/>
	<rect x="136.999" y="236.001" fill="#FFFFFF" width="8" height="10"/>
	<rect x="149.999" y="236.001" fill="#FFFFFF" width="8" height="10"/>
	<rect x="122.999" y="240.001" fill="#3D3D3D" width="147" height="7"/>
</g>
<g id="tower">
</g>
<g id="Layer_7">
	<rect x="234.999" y="130.001" fill="#FFFFFF" width="152" height="90"/>
	<linearGradient id="SVGID_2_" gradientUnits="userSpaceOnUse" x1="270.9985" y1="182.501" x2="345.9985" y2="182.501">
		<stop  offset="0" style="stop-color:#000000"/>
		<stop  offset="0.1236" style="stop-color:#060009"/>
		<stop  offset="0.3284" style="stop-color:#180023"/>
		<stop  offset="0.5128" style="stop-color:#2B003F"/>
		<stop  offset="0.7322" style="stop-color:#2A003D"/>
		<stop  offset="0.8112" style="stop-color:#250036"/>
		<stop  offset="0.8675" style="stop-color:#1D002B"/>
		<stop  offset="0.9127" style="stop-color:#12001A"/>
		<stop  offset="0.9513" style="stop-color:#030004"/>
		<stop  offset="0.9573" style="stop-color:#000000"/>
		<stop  offset="0.9944" style="stop-color:#000000"/>
	</linearGradient>
	<path fill="#FFFFFF" stroke="url(#SVGID_2_)" stroke-miterlimit="10" d="M345.499,182.235c0,2.632-1.679,5.266-3.75,5.266h-66.5
		c-2.071,0-3.75-2.633-3.75-5.266V181.6c0-2.632,1.679-4.099,3.75-4.099h66.5c2.071,0,3.75,1.467,3.75,4.099V182.235z"/>
	<path d="M278.445,182.767c0.273-0.43,0.434-0.94,0.434-1.489c0-1.533-1.241-2.776-2.772-2.776c-1.533,0-2.774,1.243-2.774,2.776
		s1.241,2.776,2.772,2.776c0.556,0,1.074-0.164,1.508-0.445l0.126-0.087l1.979,1.979l0.614-0.625l-1.978-1.98L278.445,182.767z
		 M277.659,179.726c0.414,0.414,0.642,0.964,0.642,1.549s-0.228,1.136-0.642,1.55c-0.414,0.414-0.964,0.642-1.549,0.642
		c-0.585,0-1.136-0.228-1.55-0.642c-0.414-0.414-0.642-0.965-0.642-1.55s0.228-1.136,0.642-1.549
		c0.414-0.414,0.964-0.642,1.55-0.642C276.695,179.084,277.246,179.312,277.659,179.726z"/>
	<linearGradient id="SVGID_3_" gradientUnits="userSpaceOnUse" x1="269.9985" y1="161.8242" x2="346.9985" y2="161.8242">
		<stop  offset="0" style="stop-color:#008AD4"/>
		<stop  offset="0.018" style="stop-color:#0985CC"/>
		<stop  offset="0.0481" style="stop-color:#2378B7"/>
		<stop  offset="0.0864" style="stop-color:#4D6394"/>
		<stop  offset="0.1315" style="stop-color:#864564"/>
		<stop  offset="0.1817" style="stop-color:#CF2028"/>
		<stop  offset="0.2125" style="stop-color:#FF0700"/>
		<stop  offset="0.459" style="stop-color:#EEFF3F"/>
		<stop  offset="0.7133" style="stop-color:#0D6492"/>
		<stop  offset="0.8715" style="stop-color:#00A901"/>
		<stop  offset="0.9761" style="stop-color:#FF3515"/>
	</linearGradient>
	<path fill="url(#SVGID_3_)" d="M279.945,158.153v2.64h6.372c-0.314,3.702-3.425,5.282-6.361,5.282
		c-3.756,0-7.034-2.928-7.034-7.029c0-3.996,3.125-7.074,7.042-7.074c3.023,0,4.804,1.908,4.804,1.908l1.867-1.915
		c0,0-2.396-2.641-6.766-2.641c-5.565,0-9.87,4.65-9.87,9.674c0,4.922,4.05,9.722,10.012,9.722c5.244,0,9.082-3.558,9.082-8.817
		c0-1.11-0.163-1.751-0.163-1.751L279.945,158.153z M296.29,156.241c-3.687,0-6.329,2.854-6.329,6.183
		c0,3.377,2.563,6.286,6.372,6.286c3.449,0,6.274-2.61,6.274-6.213C302.607,158.368,299.321,156.241,296.29,156.241z
		 M296.327,158.69c1.813,0,3.531,1.451,3.531,3.79c0,2.289-1.71,3.782-3.539,3.782c-2.009,0-3.595-1.594-3.595-3.8
		C292.724,160.302,294.289,158.69,296.327,158.69z M310.054,156.241c-3.687,0-6.329,2.854-6.329,6.183
		c0,3.377,2.563,6.286,6.372,6.286c3.449,0,6.274-2.61,6.274-6.213C316.372,158.368,313.085,156.241,310.054,156.241z
		 M310.091,158.69c1.813,0,3.531,1.451,3.531,3.79c0,2.289-1.711,3.782-3.54,3.782c-2.009,0-3.594-1.594-3.594-3.8
		C306.488,160.302,308.054,158.69,310.091,158.69z M323.555,156.248c-3.384,0-6.044,2.935-6.044,6.229
		c0,3.752,3.084,6.241,5.985,6.241c1.794,0,2.749-0.705,3.453-1.515v1.229c0,2.15-1.319,3.438-3.31,3.438
		c-1.923,0-2.888-1.416-3.223-2.22l-2.42,1.002c0.858,1.797,2.586,3.672,5.662,3.672c3.365,0,5.93-2.1,5.93-6.5v-11.202h-2.64v1.056
		C326.138,156.813,325.028,156.248,323.555,156.248L323.555,156.248z M323.8,158.691c1.658,0,3.362,1.403,3.362,3.798
		c0,2.435-1.7,3.776-3.399,3.776c-1.804,0-3.482-1.449-3.482-3.754C320.281,160.12,322.024,158.691,323.8,158.691L323.8,158.691z
		 M341.326,156.233c-3.192,0-5.873,2.515-5.873,6.226c0,3.927,2.988,6.255,6.18,6.255c2.663,0,4.298-1.442,5.273-2.735l-2.176-1.435
		c-0.564,0.869-1.51,1.717-3.085,1.717c-1.77,0-2.583-0.96-3.088-1.889l8.441-3.469l-0.438-1.017
		C345.746,157.896,343.843,156.233,341.326,156.233L341.326,156.233z M341.435,158.63c1.15,0,1.979,0.605,2.33,1.332l-5.638,2.333
		C337.884,160.489,339.613,158.63,341.435,158.63z M331.428,168.344h2.772v-18.375h-2.772V168.344z"/>
</g>
<g id="chair">
	<path fill="#969996" d="M495.999,252.507c0,3.725-4.93,7.494-11.628,7.494h-80.933c-6.698,0-12.439-3.77-12.439-7.494v-0.012
		c0-3.725,5.741-6.494,12.439-6.494h80.933c6.698,0,11.628,2.77,11.628,6.494V252.507z"/>
	<path fill="#282828" d="M499.999,314.612c0,3.528-2.86,6.389-6.389,6.389h-79.223c-3.528,0-6.389-2.86-6.389-6.389v-0.223
		c0-3.528,2.86-6.389,6.389-6.389h79.223c3.528,0,6.389,2.86,6.389,6.389V314.612z"/>
	<path d="M527.491,305.388c-1.604,6.43-8.118,10.342-14.549,8.737l-19.404-4.842c-6.43-1.604-10.342-8.118-8.738-14.549
		l33.199-78.733c1.604-6.43,9.61-71.552,22.667-82.177c3.879-3.156,17.794-2.105,17.794-2.105c6.43,1.604,10.343,8.118,8.738,14.548
		L527.491,305.388z"/>
	<path d="M388.134,314.012c-5.047-0.001-9.138-4.222-9.137-9.426l0.007-20.909c0.002-5.204,69.741,0.62,74.789,0.621l59.264-4.792
		c5.048,0.001,9.138,4.223,9.137,9.426l-0.007,15.705c-0.001,5.203-4.095,9.422-9.142,9.42L388.134,314.012z"/>
	<path fill="#969996" d="M525.999,301.013c0,7.449-5.815,13.988-12.99,13.988h-86.686c-7.175,0-13.324-6.539-13.324-13.988v-0.023
		c0-7.449,6.149-12.988,13.324-12.988h86.686c7.175,0,12.99,5.539,12.99,12.988V301.013z"/>
	<path fill="#969996" d="M532.338,225.548c7.224,1.82,11.988,7.624,10.643,12.963l-16.257,64.508
		c-1.346,5.339-8.354,8.438-15.577,6.619l-0.023-0.006c-7.224-1.82-11.926-7.872-10.581-13.212l16.258-64.507
		c1.346-5.34,8.292-8.191,15.515-6.371L532.338,225.548z"/>
	<path fill="#282828" d="M462.999,352.617c0,19.542-0.177,35.384-0.764,35.384h-13.174c-0.587,0-1.063-15.842-1.063-35.384v-1.232
		c0-19.542,0.476-35.384,1.063-35.384h13.174c0.587,0,0.764,15.842,0.764,35.384V352.617z"/>
	<path fill="#282828" d="M505.999,393.126c0,2.692-2.619,4.875-5.85,4.875h-90.301c-3.23,0-5.85-2.183-5.85-4.875v-0.25
		c0-2.692,2.619-4.875,5.85-4.875h90.301c3.23,0,5.85,2.183,5.85,4.875V393.126z"/>
	<path fill="#282828" d="M422.999,407.001c0,4.971-4.029,9-9,9h-1c-4.971,0-9-4.029-9-9l0,0c0-4.971,4.029-9,9-9h1
		C418.969,398.001,422.999,402.03,422.999,407.001L422.999,407.001z"/>
	<path fill="#282828" d="M505.999,407.001c0,4.971-4.029,9-9,9h-1c-4.971,0-9-4.029-9-9l0,0c0-4.971,4.029-9,9-9h1
		C501.969,398.001,505.999,402.03,505.999,407.001L505.999,407.001z"/>
	<path fill="#0377D8" d="M483.999,245.762c0,2.341-1.898,4.239-4.239,4.239h-79.521c-2.341,0-4.239-1.898-4.239-4.239v-0.521
		c0-2.341,1.898-4.239,4.239-4.239h79.521c2.341,0,4.239,1.898,4.239,4.239V245.762z"/>
	<path fill="#969996" d="M528.901,277.668c-1.944,3.177-6.021,5.103-8.887,3.349l-34.63-21.187
		c-2.866-1.753-3.355-6.472-1.411-9.648l0.006-0.011c1.943-3.177,5.846-4.036,8.711-2.283l34.631,21.187
		c2.865,1.754,3.529,5.406,1.586,8.584L528.901,277.668z"/>
</g>
</svg>
