<?xml version="1.0" encoding="utf-8"?>
<!-- Generator: Adobe Illustrator 16.0.0, SVG Export Plug-In . SVG Version: 6.00 Build 0)  -->
<!DOCTYPE svg PUBLIC "-//W3C//DTD SVG 1.1//EN" "http://www.w3.org/Graphics/SVG/1.1/DTD/svg11.dtd">
<svg version="1.1" xmlns="http://www.w3.org/2000/svg" xmlns:xlink="http://www.w3.org/1999/xlink" x="0px" y="0px" viewBox="0 0 690 364" enable-background="new 0 0 690 364" xml:space="preserve">
<g id="Layer_1">
	<path fill="#DBA767" d="M102.5,230.5C9.5,23,59.729,80.729,277.354,29.183C541.912-33.48,384.316,78.55,540.013,86.152
		c178.287,8.705,159.493,41.132,105.063,144.304C566.068,380.215,174,415,102.5,230.5"/>
</g>
<g id="Layer_2">
	<rect x="163.5" y="140.5" fill="#050505" stroke="#000000" stroke-miterlimit="10" width="156" height="104"/>
	<rect x="169" y="149" fill="#00649B" width="145" height="87"/>
	<rect x="156" y="239" fill="#050505" width="171" height="5"/>
	<polygon fill="#050505" points="319.5,252.25 163.5,251.391 156,244 327,244 	"/>
	<linearGradient id="SVGID_1_" gradientUnits="userSpaceOnUse" x1="209" y1="246.5" x2="271" y2="246.5">
		<stop  offset="0" style="stop-color:#CCE0F4"/>
		<stop  offset="0.0149" style="stop-color:#C3DCF2"/>
		<stop  offset="0.0397" style="stop-color:#A9D2EE"/>
		<stop  offset="0.0713" style="stop-color:#80C2E7"/>
		<stop  offset="0.1081" style="stop-color:#47ACDE"/>
		<stop  offset="0.1319" style="stop-color:#1E9CD7"/>
		<stop  offset="0.5753" style="stop-color:#1C9AD6"/>
		<stop  offset="0.7146" style="stop-color:#0075BE"/>
		<stop  offset="0.7901" style="stop-color:#005B97"/>
	</linearGradient>
	<path fill="url(#SVGID_1_)" d="M271,246.75c0,1.242-1.007,2.25-2.25,2.25h-57.5c-1.243,0-2.25-1.008-2.25-2.25v-0.5
		c0-1.242,1.007-2.25,2.25-2.25h57.5c1.243,0,2.25,1.008,2.25,2.25V246.75z"/>
	<path fill="#633818" d="M633,260.312c0,4.031-0.118,7.688-1.324,7.688H19.186c-1.207,0-2.186-3.657-2.186-7.688v-1.622
		c0-4.029,0.979-7.689,2.186-7.689h612.49c1.206,0,1.324,3.66,1.324,7.689V260.312z"/>
	<path fill="#A8662F" d="M643,253.75c0,1.242-1.008,2.25-2.25,2.25H10.25C9.007,256,8,254.992,8,253.75v-0.5
		c0-1.242,1.007-2.25,2.25-2.25h630.5c1.242,0,2.25,1.008,2.25,2.25V253.75z"/>
	<path fill="#050505" d="M487,250.5c0,0.874-1.119,1.5-2.5,1.5h-131c-1.381,0-2.5-0.626-2.5-1.5l0,0c0-0.874,1.119-1.5,2.5-1.5h131
		C485.881,249,487,249.626,487,250.5L487,250.5z"/>
	<polygon fill="#05BDDB" points="169,149 314.667,149 169,236 	"/>
</g>
<g id="Layer_3">
	<ellipse cx="402.031" cy="238.167" rx="1.469" ry="3.833"/>
	<path fill="#3D3D3D" d="M415.118,249.59l-23.95,0.077c0,0,2.02-5.573,2.028-7.567c0.005-1.35-1.153-3.7-1.153-3.7l8.721-2.399
		h2.185l10.063,1.724c0,0-1.552,2.709-1.092,4.255C412.59,244.235,415.118,249.59,415.118,249.59z"/>
	<rect x="327" y="240" fill="#424242" width="6" height="3"/>
	<path fill="none" stroke="#000000" stroke-miterlimit="10" d="M332.875,241.5c2.572,0,1.813,3.896,10.125,1.834
		c0.74-0.184,4.236,0.825,4.917,1.166c1.667,0.834-0.583,1.75,4.25,4.167c0.203,0.102,3.78-0.354,4.75,0
		c1.195,0.438,3.853-0.165,4.917,0c2.012,0.313,4.754-3.462,6.665-4.167c2.361-0.871,7.263-2.124,9.751-2.5
		c1.488-0.225,6.001-0.5,6.001-0.5s3.564,0.057,4.75,0c1.052-0.05,4.195-0.4,4.195-0.4"/>
</g>
</svg>
